<svg width="64" height="63" fill="none" xmlns="http://www.w3.org/2000/svg"><path d="M34.625 18.375a2.625 2.625 0 11-5.25 0 2.625 2.625 0 015.25 0z" fill="#fff" stroke="#91D3FE" stroke-width="2"/><path d="M47.75 15.75a7.875 7.875 0 01-7.875-7.875M47.75 21a7.875 7.875 0 00-7.875 7.875M16.25 15.75a7.875 7.875 0 007.875-7.875M16.25 21a7.875 7.875 0 017.875 7.875m-10.5 24.644h5.933c2.65 0 5.336.278 7.916.808a38.98 38.98 0 0013.992.31c2.278-.368 4.515-.932 6.541-1.909 1.827-.884 4.066-2.126 5.57-3.52 1.502-1.391 3.067-3.667 4.174-5.447.956-1.527.494-3.399-1.013-4.536a4.953 4.953 0 00-5.828 0l-4.743 3.584c-1.837 1.39-3.846 2.67-6.237 3.05-.289.044-.59.086-.905.123m0 0l-.29.032m.29-.032c.42-.114.805-.33 1.12-.63a3.917 3.917 0 00.331-5.602 4.985 4.985 0 00-1.181-.963c-7.342-4.381-18.769-1.045-25.67 3.85m25.4 3.345a1.48 1.48 0 01-.29.032m0 0a24.353 24.353 0 01-4.761.01" stroke="#fff" stroke-width="2" stroke-linecap="round"/><path d="M13.625 40.688a3.938 3.938 0 00-7.875 0v13.124a3.938 3.938 0 007.875 0V40.688z" stroke="#fff" stroke-width="2"/></svg>