<svg width="32" height="32" fill="none" xmlns="http://www.w3.org/2000/svg"><path d="M10.668 18.667h8c.378 0 .695-.128.95-.384a1.28 1.28 0 00.383-.95v-2.666l1.534 1.533c.2.2.438.25.716.151.277-.1.416-.305.417-.617v-4.8c0-.311-.14-.517-.417-.616-.279-.1-.517-.05-.716.149L20 12V9.334c0-.378-.127-.695-.382-.951a1.284 1.284 0 00-.95-.383h-8c-.378 0-.695.128-.95.384a1.285 1.285 0 00-.383.95v8c0 .377.128.694.384.95s.572.384.949.383zm-8 7.433V5.334c0-.734.261-1.362.784-1.884a2.563 2.563 0 011.883-.783h21.333a2.57 2.57 0 011.884.784c.523.523.784 1.15.783 1.883v16c0 .733-.262 1.361-.784 1.884a2.563 2.563 0 01-1.883.782H8.001l-3.066 3.067c-.423.422-.906.517-1.451.284-.545-.233-.817-.65-.816-1.25z" fill="#fff"/></svg>