<svg width="32" height="32" fill="none" xmlns="http://www.w3.org/2000/svg"><path d="M5.25 4A3.25 3.25 0 002 7.25v17.5A3.25 3.25 0 005.25 28H19.5v-3.892A7.026 7.026 0 0118.661 19H18a1 1 0 010-2h1.436a7.026 7.026 0 013.46-3H18a1 1 0 010-2h7a1 1 0 01.861 1.51A6.969 6.969 0 0130 15.137V7.25A3.25 3.25 0 0026.75 4H5.25zM13 13a2 2 0 11-4 0 2 2 0 014 0zm-6 4.5A1.5 1.5 0 018.5 16h5a1.5 1.5 0 011.5 1.5s0 3.5-4 3.5-4-3.5-4-3.5zm22.877 8.139a6.72 6.72 0 01-4.366 1.611h-.022A6.72 6.72 0 0121 25.532v4.518a.95.95 0 001.444.811L25.5 29l3.056 1.861A.95.95 0 0030 30.05v-4.518l-.123.107zm-.71-1.04A5.475 5.475 0 0031 20.5a5.484 5.484 0 00-1.001-3.162A5.492 5.492 0 0025.5 15a5.49 5.49 0 00-4.243 2A5.486 5.486 0 0020 20.5a5.476 5.476 0 001.834 4.1A5.48 5.48 0 0025.5 26a5.48 5.48 0 003.666-1.4l.001-.001z" fill="#91D3FE"/></svg>