<svg width="32" height="32" fill="none" xmlns="http://www.w3.org/2000/svg"><path d="M25.331 12.4V6.667c0-.734-.6-1.334-1.333-1.334h-1.333c-.733 0-1.334.6-1.334 1.334V8.8l-4.44-4a1.344 1.344 0 00-1.786 0L3.958 14.84c-.453.4-.173 1.16.44 1.16h2.267v9.333c0 .734.6 1.334 1.333 1.334h4c.734 0 1.334-.6 1.334-1.334v-6.666h5.333v6.666c0 .734.6 1.334 1.333 1.334h4c.733 0 1.333-.6 1.333-1.334V16h2.267c.614 0 .907-.76.44-1.16l-2.707-2.44zm-12 .933c0-1.466 1.2-2.666 2.667-2.666 1.467 0 2.667 1.2 2.667 2.666h-5.333z" fill="#91D3FE"/></svg>