<svg width="32" height="32" fill="none" xmlns="http://www.w3.org/2000/svg"><path d="M14.668 8h4l4.386-4.4a1.333 1.333 0 011.894 0l3.44 3.453a1.333 1.333 0 010 1.88L25.334 12H14.668v2.667a1.333 1.333 0 11-2.667 0v-4A2.667 2.667 0 0114.668 8zm-8 6.667V20l-3.054 3.053a1.333 1.333 0 000 1.88l3.44 3.454a1.333 1.333 0 001.894 0l5.72-5.72H20a1.333 1.333 0 001.333-1.334V20h1.334A1.333 1.333 0 0024 18.667v-1.334h1.333A1.334 1.334 0 0026.668 16v-1.333h-9.334V16a2.667 2.667 0 01-2.666 2.667H12A2.667 2.667 0 019.334 16v-4l-2.666 2.667z" fill="#91D3FE"/></svg>