<svg width="32" height="32" fill="none" xmlns="http://www.w3.org/2000/svg"><path d="M25.321 2.667H12.013a2.678 2.678 0 00-2.68 2.68v7.516l-6.27 6.189A1.333 1.333 0 004 21.333V28a1.333 1.333 0 001.333 1.333h21.333A1.333 1.333 0 0028 28V5.345a2.677 2.677 0 00-2.679-2.678zm-10.759 17.48v6.52H6.666v-7.425l3.983-3.932 3.913 4.004v.834zM17.333 12h-2.667V9.333h2.667V12zm5.333 10.666H20V20h2.666v2.666zm0-5.333H20v-2.666h2.666v2.666zm0-5.333H20V9.333h2.666V12z" fill="#91D3FE"/><path d="M9.332 20h2.667v2.667H9.332V20z" fill="#91D3FE"/></svg>