<svg width="32" height="32" fill="none" xmlns="http://www.w3.org/2000/svg"><g clip-path="url(#clip0_499_1344)"><path d="M32 23.188c0 .562-.104 1.093-.313 1.593-.208.5-.51.953-.906 1.36L25 31.906l-5.781-5.765a4.135 4.135 0 01-.907-1.344 4.143 4.143 0 01-.312-1.61 4.193 4.193 0 011.219-2.953 4.475 4.475 0 011.312-.906 3.73 3.73 0 011.64-.328c.522 0 1.027.088 1.517.266.49.177.927.453 1.312.828a3.944 3.944 0 011.313-.813c.479-.177.984-.27 1.515-.281.584 0 1.125.11 1.625.328.5.219.943.516 1.328.89.386.376.683.824.89 1.345.21.52.319 1.062.329 1.625zm-2 0c0-.303-.057-.584-.172-.844a2.442 2.442 0 00-.469-.703 1.925 1.925 0 00-.687-.47 2.523 2.523 0 00-.86-.171 2.09 2.09 0 00-1.53.64L25 22.923l-1.281-1.281a2.082 2.082 0 00-.703-.47 2.446 2.446 0 00-.828-.171c-.303 0-.584.057-.844.172a2.41 2.41 0 00-.703.469 1.925 1.925 0 00-.47.687c-.103.26-.16.547-.171.86 0 .593.213 1.104.64 1.53l4.36 4.36 4.36-4.36a2.09 2.09 0 00.64-1.53zM18 18a9.902 9.902 0 00-2.828-1.5c-.98-.323-2.037-.49-3.172-.5-1.396 0-2.703.255-3.922.766a9.649 9.649 0 00-3.172 2.125 10.17 10.17 0 00-2.125 3.187A9.875 9.875 0 002 26H0c0-1.26.182-2.469.547-3.625.364-1.156.885-2.23 1.562-3.219a11.5 11.5 0 012.438-2.593c.948-.74 2.02-1.339 3.219-1.797a7.286 7.286 0 01-1.547-1.282A9.025 9.025 0 015.03 11.86 7.86 7.86 0 014.266 10 7.644 7.644 0 014 8c0-1.104.208-2.14.625-3.11a7.896 7.896 0 011.719-2.53A8.444 8.444 0 018.89.64 7.622 7.622 0 0112 0c1.104 0 2.14.208 3.11.625.968.417 1.812.99 2.53 1.719a8.444 8.444 0 011.72 2.547c.427.968.64 2.005.64 3.109a7.47 7.47 0 01-.266 1.984 8.692 8.692 0 01-.75 1.86 7.933 7.933 0 01-1.187 1.64c-.469.5-.99.928-1.563 1.282.688.24 1.318.541 1.891.906.573.364 1.14.791 1.703 1.281-.344.115-.661.26-.953.438A8.88 8.88 0 0018 18zm0-10c0-.823-.156-1.594-.469-2.313a6.124 6.124 0 00-1.297-1.906 6.126 6.126 0 00-1.906-1.297A5.965 5.965 0 0012 2c-.823 0-1.594.156-2.313.469a6.126 6.126 0 00-1.906 1.297 6.126 6.126 0 00-1.297 1.906A5.966 5.966 0 006 8c0 .823.156 1.594.469 2.313a6.127 6.127 0 001.297 1.906 6.127 6.127 0 001.906 1.297A5.965 5.965 0 0012 14c.823 0 1.594-.156 2.313-.469a6.125 6.125 0 001.906-1.297 6.127 6.127 0 001.297-1.906A5.965 5.965 0 0018 8z" fill="#91D3FE"/></g><defs><clipPath id="clip0_499_1344"><path fill="#fff" d="M0 0h32v32H0z"/></clipPath></defs></svg>