<svg width="21" height="22" fill="none" xmlns="http://www.w3.org/2000/svg"><path d="M13.125 18.875c-1.72 0-3.252-.488-4.594-1.466a7.873 7.873 0 01-2.844-3.784H2.626v-1.75h2.669a6.546 6.546 0 01-.054-.974c.007-.3.025-.558.054-.776h-2.67v-1.75h3.063A7.873 7.873 0 018.53 4.591c1.342-.977 2.873-1.466 4.594-1.466a7.64 7.64 0 012.855.536 7.99 7.99 0 012.395 1.477l-1.247 1.224a6.181 6.181 0 00-1.826-1.093 5.975 5.975 0 00-2.177-.394c-1.24 0-2.348.325-3.325.974a6.209 6.209 0 00-2.21 2.526h5.535v1.75h-6.06c-.058.394-.08.74-.065 1.04.015.299.036.536.066.71h6.059v1.75H7.591A6.207 6.207 0 009.8 16.152c.977.65 2.085.974 3.325.973a5.98 5.98 0 002.177-.394 6.165 6.165 0 001.826-1.094l1.247 1.226a7.994 7.994 0 01-2.396 1.477 7.624 7.624 0 01-2.854.535z" fill="#91D3FE" stroke="#91D3FE" stroke-width=".5"/></svg>