<svg width="95" height="95" fill="none" xmlns="http://www.w3.org/2000/svg"><g clip-path="url(#clip0_200_217)" stroke="#fff" stroke-width="4" stroke-linecap="round" stroke-linejoin="round"><path d="M69.643 57.583A33.571 33.571 0 1114.25 32.068M34.597 45.16a10.743 10.743 0 00-1.074 4.7 10.204 10.204 0 0010.272 10.274 5.17 5.17 0 015.17 5.17v23.298M2.974 62.752h12.421a10.34 10.34 0 0110.609 10.34v16.45m62.174-76.475l-6.714-2.283a2.282 2.282 0 00-2.619.873l-4.901 7.587L47.086 5.815a16.718 16.718 0 00-24.24 8.796 4.567 4.567 0 003.157 6.043l17.524 5.64 1.746.604 3.29 11.28a2.416 2.416 0 001.611 1.679l7.923 2.551a2.483 2.483 0 003.223-2.753l-1.746-8.393h1.142l17.12 5.573a4.499 4.499 0 005.708-2.753l6.043-18.598a2.282 2.282 0 00-1.41-2.417z"/></g><defs><clipPath id="clip0_200_217"><path fill="#fff" transform="translate(.5 .5)" d="M0 0h94v94H0z"/></clipPath></defs></svg>