<svg width="34" height="35" fill="none" xmlns="http://www.w3.org/2000/svg"><path d="M16.997 17.5A2.73 2.73 0 0019 16.667a2.723 2.723 0 00.832-2 2.73 2.73 0 00-.833-2.002 2.723 2.723 0 00-2-.831 2.73 2.73 0 00-2.002.832 2.723 2.723 0 00-.832 2c0 .78.278 1.447.833 2.003a2.723 2.723 0 002 .831zm0 13.636c-.189 0-.377-.036-.566-.107a1.697 1.697 0 01-.496-.283c-3.447-3.046-6.02-5.873-7.72-8.483-1.7-2.61-2.55-5.047-2.55-7.313 0-3.541 1.139-6.363 3.417-8.464 2.28-2.102 4.918-3.152 7.915-3.152 2.999 0 5.638 1.05 7.917 3.152 2.279 2.101 3.418 4.923 3.417 8.464 0 2.267-.85 4.705-2.55 7.314-1.7 2.61-4.274 5.437-7.721 8.482a1.697 1.697 0 01-.496.283 1.603 1.603 0 01-.567.107z" fill="#121212"/></svg>