<svg width="30" height="30" fill="none" xmlns="http://www.w3.org/2000/svg"><path d="M2.5 23.75v-7.5c0-.563.115-1.073.344-1.531A4.31 4.31 0 013.75 13.5V10c0-1.042.365-1.927 1.094-2.656.729-.73 1.614-1.094 2.656-1.094h5a3.4 3.4 0 011.344.266c.416.178.802.422 1.156.734a4.25 4.25 0 011.156-.734A3.422 3.422 0 0117.5 6.25h5c1.042 0 1.927.365 2.656 1.094.73.729 1.094 1.614 1.094 2.656v3.5c.375.354.677.76.906 1.219.23.458.344.969.344 1.531v7.5H25v-2.5H5v2.5H2.5zM16.25 12.5h7.5V10c0-.354-.12-.651-.36-.891s-.537-.36-.89-.359h-5c-.354 0-.651.12-.891.36s-.36.537-.359.89v2.5zm-10 0h7.5V10c0-.354-.12-.651-.36-.891s-.537-.36-.89-.359h-5c-.354 0-.651.12-.891.36s-.36.537-.359.89v2.5z" fill="#fff"/></svg>