<svg width="17" height="21" fill="none" xmlns="http://www.w3.org/2000/svg"><path d="M8.5 10.5a2.06 2.06 0 001.501-.617c.417-.412.625-.906.624-1.483A2.01 2.01 0 0010 6.916 2.054 2.054 0 008.5 6.3a2.06 2.06 0 00-1.501.617A2.006 2.006 0 006.375 8.4c0 .577.208 1.072.625 1.484.416.411.916.617 1.5.616zm0 7.718c2.16-1.96 3.763-3.741 4.808-5.343 1.045-1.601 1.567-3.023 1.567-4.265 0-1.907-.616-3.47-1.847-4.685C11.798 2.709 10.288 2.1 8.5 2.1c-1.789 0-3.298.608-4.53 1.825C2.74 5.14 2.125 6.703 2.126 8.61c0 1.242.522 2.665 1.567 4.266 1.045 1.602 2.648 3.382 4.808 5.342zM8.5 21c-2.851-2.398-4.98-4.624-6.388-6.68C.705 12.264.001 10.36 0 8.61c0-2.625.855-4.716 2.564-6.274C4.273.78 6.252 0 8.5 0c2.249 0 4.228.779 5.937 2.336C16.147 3.894 17.001 5.985 17 8.61c0 1.75-.704 3.653-2.112 5.71C13.48 16.376 11.35 18.603 8.5 21z" fill="#fff"/></svg>