<svg width="32" height="33" fill="none" xmlns="http://www.w3.org/2000/svg"><path d="M12.055 29.22c1.28.387 2.573.614 3.946.614A13.333 13.333 0 102.668 16.5c0 5.667 3.56 10.534 8.587 12.454-.12-1.04-.24-2.76 0-3.947l1.533-6.587s-.387-.773-.387-2c0-1.84 1.147-3.213 2.454-3.213 1.146 0 1.68.84 1.68 1.92 0 1.147-.76 2.787-1.147 4.36-.227 1.307.693 2.453 2.027 2.453 2.373 0 4.213-2.533 4.213-6.106 0-3.2-2.293-5.387-5.587-5.387-3.76 0-5.973 2.8-5.973 5.747 0 1.146.373 2.306.987 3.066.12.08.12.187.08.387l-.387 1.453c0 .227-.147.307-.373.147-1.707-.747-2.694-3.173-2.694-5.133 0-4.214 2.987-8.04 8.747-8.04 4.587 0 8.16 3.293 8.16 7.666 0 4.587-2.84 8.267-6.907 8.267-1.293 0-2.56-.693-3.013-1.507l-.893 3.16c-.307 1.147-1.147 2.68-1.72 3.6v-.04z" fill="#65ACF9"/></svg>