<svg width="54" height="51" fill="none" xmlns="http://www.w3.org/2000/svg"><g opacity=".25" clip-path="url(#clip0_209_1167)"><path d="M49.953 7.229c-7.552 3.4-11.327 8.636-11.327 15.708 0 3.128.463 5.168 1.39 6.12 1.06.816 2.452 1.224 4.174 1.224 3.18 0 5.498.816 6.955 2.448 1.59 1.632 2.385 3.672 2.385 6.12 0 3.264-.994 5.848-2.981 7.752-1.855 1.904-4.505 2.856-7.949 2.856-8.479 0-12.718-4.556-12.718-13.668v-6.936c0-7.752 1.855-13.94 5.564-18.564 3.842-4.624 8.678-7.956 14.507-9.996v6.936zm-29.765.816c-7.684 3.4-11.526 8.636-11.526 15.708 0 3.128.464 5.168 1.391 6.12 1.06.816 2.517 1.224 4.372 1.224 6.094 0 9.141 2.856 9.141 8.568 0 3.264-.927 5.848-2.782 7.752s-4.504 2.856-7.949 2.856c-5.166 0-8.61-1.36-10.333-4.08-1.59-2.72-2.385-5.984-2.385-9.792v-6.732c0-7.888 1.855-14.076 5.564-18.564 3.842-4.624 8.678-7.956 14.507-9.996v6.936z" fill="#91D3FE"/></g><defs><clipPath id="clip0_209_1167"><path fill="#fff" d="M0 0h54v51H0z"/></clipPath></defs></svg>