<svg width="33" height="32" fill="none" xmlns="http://www.w3.org/2000/svg"><path d="M17.165 9.2c1.894 0 2.84.72 3.187 1.867.173.573.747.933 1.347.933h.08c.933 0 1.626-.947 1.293-1.813-.587-1.534-1.88-2.774-3.907-3.267V6c0-1.107-.893-2-2-2-1.106 0-2 .893-2 2v.88c-.52.107-1 .28-1.466.48l2.013 2.013c.427-.106.92-.173 1.453-.173zM6.86 6.16a1.328 1.328 0 000 1.88l3.64 3.653c0 2.774 2.08 4.294 5.213 5.214l4.68 4.68c-.453.653-1.4 1.213-3.227 1.213-2.2 0-3.333-.787-3.773-1.907-.2-.52-.653-.893-1.2-.893h-.227c-.96 0-1.653.987-1.266 1.853.786 1.774 2.52 2.827 4.48 3.254V26c0 1.107.893 2 2 2 1.106 0 2-.893 2-2v-.867c1.28-.24 2.44-.733 3.28-1.493l2.013 2.013a1.328 1.328 0 002.27-.94 1.33 1.33 0 00-.39-.94L8.739 6.16a1.328 1.328 0 00-1.88 0z" fill="#174B60"/></svg>