<svg width="32" height="32" fill="none" xmlns="http://www.w3.org/2000/svg"><path fill-rule="evenodd" clip-rule="evenodd" d="M5.563 4.23C4 5.79 4 8.306 4 13.334v5.333c0 5.028 0 7.543 1.563 9.104 1.561 1.563 4.076 1.563 9.104 1.563h2.666c5.028 0 7.543 0 9.104-1.563C28 26.21 28 23.695 28 18.667v-5.333c0-5.028 0-7.543-1.563-9.104-1.561-1.563-4.076-1.563-9.104-1.563h-2.666c-5.028 0-7.543 0-9.104 1.563zm5.104 8.104a1 1 0 100 2h10.666a1 1 0 100-2H10.667zm0 5.333a1 1 0 000 2h6.666a1 1 0 100-2h-6.666z" fill="#174B60"/></svg>