<svg width="33" height="32" fill="none" xmlns="http://www.w3.org/2000/svg"><path d="M8.499 29.333a2.569 2.569 0 01-1.884-.784 2.563 2.563 0 01-.783-1.883V13.333c0-.733.261-1.361.784-1.884a2.563 2.563 0 011.883-.783h1.333V8c0-1.845.65-3.417 1.95-4.718 1.301-1.3 2.873-1.95 4.717-1.949 1.844 0 3.417.65 4.717 1.95 1.3 1.301 1.95 2.873 1.95 4.717v2.666h1.333a2.57 2.57 0 011.884.784c.522.523.783 1.15.782 1.883v13.333c0 .734-.261 1.362-.784 1.884a2.563 2.563 0 01-1.882.783h-16zm8-6.667c.733 0 1.361-.261 1.884-.784.522-.522.783-1.15.782-1.882 0-.734-.261-1.362-.784-1.884a2.563 2.563 0 00-1.882-.783c-.734 0-1.362.261-1.884.784A2.563 2.563 0 0013.832 20c0 .733.261 1.361.784 1.884.523.522 1.15.783 1.883.782zm-4-12h8V8c0-1.111-.39-2.056-1.167-2.834C18.554 4.39 17.61 4 16.499 4c-1.111 0-2.056.389-2.834 1.166C12.888 5.944 12.5 6.89 12.5 8v2.666z" fill="#174B60"/></svg>