<svg width="64" height="63" fill="none" xmlns="http://www.w3.org/2000/svg"><path fill-rule="evenodd" clip-rule="evenodd" d="M11.451 8.33c-3.076 3.073-3.076 8.024-3.076 17.923v10.5c0 9.899 0 14.85 3.076 17.923 3.074 3.077 8.025 3.077 17.924 3.077h5.25c9.899 0 14.85 0 17.923-3.077 3.077-3.073 3.077-8.024 3.077-17.923v-10.5c0-9.899 0-14.85-3.077-17.924-3.073-3.076-8.024-3.076-17.923-3.076h-5.25c-9.899 0-14.85 0-17.924 3.076zM21.5 24.283a1.969 1.969 0 100 3.938h21a1.968 1.968 0 100-3.938h-21zm0 10.5a1.969 1.969 0 100 3.938h13.125a1.968 1.968 0 100-3.938H21.5z" fill="#fff"/><path d="M21.5 34.784a1.969 1.969 0 100 3.938h13.125a1.968 1.968 0 100-3.938H21.5zm0-10.5a1.969 1.969 0 100 3.938h21a1.968 1.968 0 100-3.938h-21z" fill="#91D3FE"/></svg>