<svg width="32" height="33" fill="none" xmlns="http://www.w3.org/2000/svg"><path d="M16.001 3.167C8.641 3.167 2.668 9.14 2.668 16.5s5.973 13.334 13.333 13.334S29.335 23.86 29.335 16.5C29.335 9.14 23.36 3.167 16 3.167zm6.187 9.067c-.2 2.106-1.067 7.226-1.507 9.586-.186 1-.56 1.334-.906 1.374-.774.066-1.36-.507-2.107-1-1.173-.774-1.84-1.254-2.973-2-1.32-.867-.467-1.347.293-2.12.2-.2 3.613-3.307 3.68-3.587a.268.268 0 00-.067-.24c-.08-.067-.186-.04-.28-.027-.12.027-1.986 1.267-5.626 3.72-.534.36-1.014.547-1.44.534-.48-.014-1.387-.267-2.067-.494-.84-.266-1.493-.413-1.44-.88.027-.24.36-.48.987-.733 3.893-1.693 6.48-2.813 7.773-3.347 3.707-1.546 4.467-1.813 4.973-1.813.107 0 .36.027.52.16a.53.53 0 01.187.36c-.013.08.013.32 0 .507z" fill="#65ACF9"/></svg>