<svg width="32" height="32" fill="none" xmlns="http://www.w3.org/2000/svg"><path d="M22.026 22.001c.233-.181.445-.393.868-.816l5.276-5.277c.128-.127.07-.347-.1-.407a5.777 5.777 0 01-2.192-1.378A5.775 5.775 0 0124.5 11.93c-.06-.17-.28-.228-.407-.1l-5.279 5.276c-.422.422-.634.634-.816.868-.215.276-.4.573-.55.888-.126.266-.22.552-.41 1.12l-.245.733-.39 1.167-.363 1.093a.779.779 0 00.983.984l1.094-.364 1.166-.39.734-.245c.568-.19.853-.282 1.12-.41.314-.151.614-.334.89-.55zm7.796-7.745a2.884 2.884 0 10-4.077-4.079l-.17.17a.7.7 0 00-.197.62c.027.144.073.354.16.604.174.5.502 1.156 1.119 1.773a4.666 4.666 0 001.773 1.119c.25.086.46.133.603.16a.7.7 0 00.62-.198l.17-.17z" fill="#626262"/><path fill-rule="evenodd" clip-rule="evenodd" d="M5.563 4.23C4 5.79 4 8.306 4 13.334v5.333c0 5.028 0 7.543 1.563 9.104 1.561 1.563 4.076 1.563 9.104 1.563h2.666c5.028 0 7.543 0 9.104-1.563C27.975 26.235 28 23.776 28 18.907l-3.757 3.757c-.36.36-.655.655-.987.915a6.81 6.81 0 01-1.259.777c-.41.184-.83.342-1.258.474l-3.083 1.028a2.778 2.778 0 01-3.513-3.514l.365-1.093.633-1.901.028-.088c.162-.483.294-.878.475-1.259.213-.447.473-.868.777-1.257.26-.334.555-.627.915-.987l5.341-5.343 1.483-1.482.17-.17a4.869 4.869 0 013.454-1.43c-.201-1.374-.592-2.351-1.347-3.104-1.561-1.563-4.076-1.563-9.104-1.563h-2.666c-5.028 0-7.543 0-9.104 1.563zM9.667 12a1 1 0 011-1h8.666a1 1 0 010 2h-8.666a1 1 0 01-1-1zm0 5.334a1 1 0 011-1H14a1 1 0 110 2h-3.333a1 1 0 01-1-1zm0 5.333a1 1 0 011-1h2a1 1 0 110 2h-2a1 1 0 01-1-1z" fill="#626262"/></svg>