<svg width="32" height="32" fill="none" xmlns="http://www.w3.org/2000/svg"><path d="M1.14 30.857h29.715m-24-26.446l3.154 1.234a1.052 1.052 0 01.686 1.075l-.412 4.114 13.35 3.086A7.704 7.704 0 0129.712 24a2.082 2.082 0 01-2.72 1.142l-7.887-3.085-.823-.297-4.57 3.063a1.19 1.19 0 01-1.075.114L9.14 23.542a1.142 1.142 0 01-.32-1.942l2.925-2.423-.525-.206L3.518 16a2.057 2.057 0 01-1.235-2.675L5.575 4.96a1.006 1.006 0 011.28-.549z" stroke="#91D3FE" stroke-width="2" stroke-linecap="round" stroke-linejoin="round"/></svg>