<svg width="32" height="32" fill="none" xmlns="http://www.w3.org/2000/svg"><path d="M1.14 30.857h29.715M30.146 8.64l-3.131-1.005a1.051 1.051 0 00-1.166.388l-2.148 3.406-11.795-5.874A7.405 7.405 0 001.232 9.326a2.011 2.011 0 001.326 2.514l7.748 2.515.778.251 1.462 5.006a1.03 1.03 0 00.709.731l3.52 1.143a1.097 1.097 0 001.509-1.234l-.732-3.566.503.16 7.566 2.446a1.966 1.966 0 002.537-1.189l2.651-8.228a1.006 1.006 0 00-.663-1.235z" stroke="#626262" stroke-width="2" stroke-linecap="round" stroke-linejoin="round"/></svg>