<svg width="66" height="54" fill="none" xmlns="http://www.w3.org/2000/svg"><path d="M61.722 36.46c0 5.127-3.028 9.282-8.976 9.282H13.253c-5.948 0-8.976-4.155-8.976-9.281V17.898c0-5.125 3.028-9.28 8.976-9.28h39.493c5.948 0 8.976 4.155 8.976 9.28v18.563z" stroke="#fff" stroke-width="2"/><path fill-rule="evenodd" clip-rule="evenodd" d="M39.98 32.512c-2.066 3.03-6.368 4.941-10.87 3.705-4.248-1.17-7.166-5.039-6.924-9.212.235-4.192 3.585-7.757 7.938-8.48 4.613-.77 8.318 1.554 9.9 3.988-1.875-1.733-4.055-2.514-6.608-2.24-2 .216-3.67 1.066-4.98 2.5-2.561 2.803-2.467 7.007.208 9.652 1.534 1.517 3.42 2.311 5.647 2.33 2.225.016 4.113-.776 5.695-2.239" fill="#fff"/><path d="M43.98 24.139l1.821 1.59 2.43-.507-1.047 2.126 1.265 2.01-2.468-.28-1.651 1.755-.477-2.297-2.287-.931 2.174-1.134.24-2.332z" fill="#fff"/></svg>