<svg width="88" height="71" fill="none" xmlns="http://www.w3.org/2000/svg"><path d="M82.296 47.94c0 6.739-4.037 12.203-11.968 12.203H17.671c-7.931 0-11.968-5.464-11.968-12.203V23.533c0-6.74 4.037-12.203 11.968-12.203h52.657c7.931 0 11.968 5.464 11.968 12.203V47.94z" stroke="#91D3FE" stroke-width="2"/><path fill-rule="evenodd" clip-rule="evenodd" d="M53.307 42.748c-2.755 3.983-8.491 6.496-14.493 4.871-5.664-1.538-9.555-6.625-9.233-12.112.314-5.512 4.78-10.199 10.584-11.15 6.15-1.012 11.09 2.044 13.2 5.244-2.5-2.28-5.407-3.305-8.81-2.945-2.666.284-4.895 1.401-6.64 3.287-3.415 3.686-3.29 9.213.277 12.69 2.045 1.995 4.56 3.039 7.53 3.064 2.966.02 5.483-1.02 7.592-2.944" fill="#91D3FE"/><path d="M58.639 31.738l2.43 2.09 3.24-.665-1.397 2.795L64.6 38.6l-3.292-.367-2.2 2.307-.636-3.02-3.05-1.224 2.9-1.491.318-3.067z" fill="#91D3FE"/></svg>